# xmcd
#
# Track frame offsets: 
#        150
#        13030
#        26845
#        39573
#        52676
#        66423
#        80396
#        93884
#        107883
#        121457
#        134182
#        145794
#        159350
#        170758
#        186029
#        199223
#        212642
#        222704
#        236115
#        248216
#
# Disc length: 3490 seconds
#
# Revision: 3
# Processed by: cddbd v1.5.2PL0 Copyright (c) Steve Scherf et al.
# Submitted via: ExactAudioCopyFreeDBPlugin 1.0
#
DISCID=2c0da014
DTITLE=B.B. King - Singin' The Blues
DYEAR=2005
DGENRE=Blues
TTITLE0=Please Love Me
TTITLE1=You Upset Me Baby
TTITLE2=Every Day I Have The Blues
TTITLE3=Bad Luck
TTITLE4=3 O'Clock Blues
TTITLE5=Blind Love
TTITLE6=Woke Up This Morning
TTITLE7=You Know I Love You
TTITLE8=Sweet Little Angel
TTITLE9=Ten Long Years
TTITLE10=Did You Ever Love A Woman
TTITLE11=Crying Won't Help You
TTITLE12=Whole Lotta Meat
TTITLE13=I'm Cracking Up Over You
TTITLE14=I Stay In The Mood
TTITLE15=When My Hearths Beats Like A Hammer (aka Million Years Blues)
TTITLE16=Jump With You Baby
TTITLE17=Lonely And Blue
TTITLE18=Dark Is The Night Pt 1 (aka The Blues Has Got Me)
TTITLE19=Ruby Lee
EXTD=YEAR: 2005
EXTT0=
EXTT1=
EXTT2=
EXTT3=
EXTT4=
EXTT5=
EXTT6=
EXTT7=
EXTT8=
EXTT9=
EXTT10=
EXTT11=
EXTT12=
EXTT13=
EXTT14=
EXTT15=
EXTT16=
EXTT17=
EXTT18=
EXTT19=
PLAYORDER=
